<?xml version="1.0" encoding="UTF-8" standalone="no"?>
<svg width="255px" height="62px" viewBox="0 0 255 62" version="1.1" xmlns="http://www.w3.org/2000/svg" xmlns:xlink="http://www.w3.org/1999/xlink">
    <!-- Generator: Sketch 41.2 (35397) - http://www.bohemiancoding.com/sketch -->
    <title>download</title>
    <desc>Created with Sketch.</desc>
    <defs>
        <rect id="path-1" x="0" y="0" width="247" height="54" rx="27"></rect>
        <filter x="-50%" y="-50%" width="200%" height="200%" filterUnits="objectBoundingBox" id="filter-2">
            <feOffset dx="0" dy="2" in="SourceAlpha" result="shadowOffsetOuter1"></feOffset>
            <feGaussianBlur stdDeviation="2" in="shadowOffsetOuter1" result="shadowBlurOuter1"></feGaussianBlur>
            <feColorMatrix values="0 0 0 0 0   0 0 0 0 0   0 0 0 0 0  0 0 0 0.5 0" type="matrix" in="shadowBlurOuter1"></feColorMatrix>
        </filter>
    </defs>
    <g id="Page-1" stroke="none" stroke-width="1" fill="none" fill-rule="evenodd">
        <g id="moji-web" transform="translate(-460.000000, -393.000000)">
            <g id="download" transform="translate(464.000000, 395.000000)">
                <g id="Rectangle-2">
                    <use fill="black" fill-opacity="1" filter="url(#filter-2)" xlink:href="#path-1"></use>
                    <use fill="#FF9500" fill-rule="evenodd" xlink:href="#path-1"></use>
                </g>
                <text id="下载最新iPhone版" font-family="STHeitiSC-Light, Heiti SC" font-size="20" font-weight="300" letter-spacing="-0.482352883" fill="#FFFFFF">
                    <tspan x="55" y="33">下载最新iPhone版</tspan>
                </text>
                <g id="apple-icon" transform="translate(28.247148, 12.960000)" fill="#FFFFFF">
                    <path d="M18.388143,14.638608 C18.3575772,11.215782 21.1696289,9.550566 21.298216,9.47304 C19.7056335,7.133454 17.2371833,6.813792 16.3697475,6.788304 C14.2965445,6.56847 12.285527,8.038278 11.2294266,8.038278 C10.1522464,8.038278 8.52593612,6.809544 6.77314677,6.845652 C4.51760304,6.880698 2.40751027,8.196516 1.25022662,10.239804 C-1.13812015,14.40603 0.643126996,20.52846 2.93134449,23.896062 C4.07598023,25.545348 5.41349658,27.386856 7.16417795,27.322074 C8.87691559,27.25092 9.51668897,26.221842 11.5835681,26.221842 C13.6314753,26.221842 14.232251,27.322074 16.0177141,27.280656 C17.8558768,27.25092 19.0131605,25.623936 20.1177445,23.959782 C21.4405049,22.069422 21.9717171,20.207736 21.992797,20.112156 C21.9495833,20.097288 18.4229247,18.741114 18.388143,14.638608 Z" id="Shape"></path>
                    <path d="M15.0153673,4.572972 C15.9365567,3.412206 16.5668441,1.833012 16.3918814,0.230454 C15.058581,0.289926 13.391165,1.159704 12.4309779,2.294982 C11.5814601,3.295386 10.8225856,4.935114 11.0186281,6.477138 C12.5163513,6.58971 14.0541262,5.715684 15.0153673,4.572972 Z" id="Shape"></path>
                </g>
            </g>
        </g>
    </g>
</svg>