<?xml version="1.0" encoding="UTF-8" standalone="no"?>
<svg width="17px" height="24px" viewBox="0 0 17 24" version="1.1" xmlns="http://www.w3.org/2000/svg" xmlns:xlink="http://www.w3.org/1999/xlink">
    <!-- Generator: Sketch 41.2 (35397) - http://www.bohemiancoding.com/sketch -->
    <title>Mask</title>
    <desc>Created with Sketch.</desc>
    <defs>
        <path d="M17,20.4118115 C16.9846947,20.4267801 16.9693259,20.4417108 16.9538934,20.4566034 C13.2109113,24.0686327 7.14233826,24.0686327 3.39935617,20.4566034 C-0.343625922,16.844574 -0.343625922,10.9883174 3.39935617,7.37628805 C3.41478868,7.36139547 3.43026072,7.34656429 3.44577197,7.33179451 L17,20.4118115 Z M0.40501409,2.89081511 C0.420319341,2.87584653 0.43568822,2.8609158 0.451120728,2.84602322 C4.19410282,-0.766006125 10.2626758,-0.766006125 14.0056579,2.84602322 C17.74864,6.45805256 17.74864,12.3143092 14.0056579,15.9263386 C13.9902254,15.9412311 13.9747534,15.9560623 13.9592421,15.9708321 L0.40501409,2.89081511 L0.40501409,2.89081511 Z" id="path-1"></path>
    </defs>
    <g id="Page-1" stroke="none" stroke-width="1" fill="none" fill-rule="evenodd">
        <g id="moji-web" transform="translate(-455.000000, -1446.000000)">
            <g id="juzi" transform="translate(455.000000, 1446.000000)">
                <g id="Group">
                    <mask id="mask-2" fill="white">
                        <use xlink:href="#path-1"></use>
                    </mask>
                    <use id="Mask" fill="#000000" xlink:href="#path-1"></use>
                </g>
            </g>
        </g>
    </g>
</svg>